{
	"asset":{
		"generator":"Khronos glTF Blender I/O v5.1.19",
		"version":"2.0"
	},
	"scene":0,
	"scenes":[
		{
			"name":"Scene",
			"nodes":[
				0
			]
		}
	],
	"nodes":[
		{
			"mesh":0,
			"name":"\u7bb1",
			"rotation":[
				0,
				0,
				0.004363309592008591,
				0.9999905824661255
			],
			"scale":[
				0.4722299873828888,
				0.25,
				0.5021249651908875
			],
			"translation":[
				0.646543562412262,
				0.008571336045861244,
				0
			]
		}
	],
	"materials":[
		{
			"doubleSided":true,
			"name":"\u30de\u30c6\u30ea\u30a2\u30eb.032",
			"pbrMetallicRoughness":{
				"baseColorTexture":{
					"index":0
				},
				"metallicFactor":0,
				"roughnessFactor":0.5
			}
		},
		{
			"doubleSided":true,
			"name":"\u30de\u30c6\u30ea\u30a2\u30eb.031",
			"pbrMetallicRoughness":{
				"baseColorTexture":{
					"index":1
				},
				"metallicFactor":0,
				"roughnessFactor":0.5
			}
		}
	],
	"meshes":[
		{
			"name":"\u7acb\u65b9\u4f53.001",
			"primitives":[
				{
					"attributes":{
						"POSITION":0,
						"NORMAL":1,
						"TEXCOORD_0":2,
						"COLOR_0":3,
						"COLOR_1":4
					},
					"indices":5,
					"material":0
				},
				{
					"attributes":{
						"POSITION":6,
						"NORMAL":7,
						"TEXCOORD_0":8,
						"COLOR_0":9,
						"COLOR_1":10
					},
					"indices":11,
					"material":1
				}
			]
		}
	],
	"textures":[
		{
			"sampler":0,
			"source":0
		},
		{
			"sampler":0,
			"source":1
		}
	],
	"images":[
		{
			"mimeType":"image/png",
			"name":"collar",
			"uri":"collar.png"
		},
		{
			"mimeType":"image/png",
			"name":"collar2",
			"uri":"collar2.png"
		}
	],
	"accessors":[
		{
			"bufferView":0,
			"componentType":5126,
			"count":254,
			"max":[
				-0.35582688450813293,
				1.0092663764953613,
				0.9999999403953552
			],
			"min":[
				-2.365433692932129,
				-1.0316109657287598,
				-1.000001072883606
			],
			"type":"VEC3"
		},
		{
			"bufferView":1,
			"componentType":5126,
			"count":254,
			"type":"VEC3"
		},
		{
			"bufferView":2,
			"componentType":5126,
			"count":254,
			"type":"VEC2"
		},
		{
			"bufferView":3,
			"componentType":5121,
			"count":254,
			"normalized":true,
			"type":"VEC4"
		},
		{
			"bufferView":4,
			"componentType":5123,
			"count":254,
			"normalized":true,
			"type":"VEC4"
		},
		{
			"bufferView":5,
			"componentType":5123,
			"count":636,
			"type":"SCALAR"
		},
		{
			"bufferView":6,
			"componentType":5126,
			"count":14,
			"max":[
				-0.3563401997089386,
				1.006429672241211,
				-0.8731105327606201
			],
			"min":[
				-2.3664140701293945,
				-1.0283154249191284,
				-0.8731114864349365
			],
			"type":"VEC3"
		},
		{
			"bufferView":7,
			"componentType":5126,
			"count":14,
			"type":"VEC3"
		},
		{
			"bufferView":8,
			"componentType":5126,
			"count":14,
			"type":"VEC2"
		},
		{
			"bufferView":9,
			"componentType":5121,
			"count":14,
			"normalized":true,
			"type":"VEC4"
		},
		{
			"bufferView":10,
			"componentType":5123,
			"count":14,
			"normalized":true,
			"type":"VEC4"
		},
		{
			"bufferView":11,
			"componentType":5123,
			"count":36,
			"type":"SCALAR"
		}
	],
	"bufferViews":[
		{
			"buffer":0,
			"byteLength":3048,
			"byteOffset":0,
			"target":34962
		},
		{
			"buffer":0,
			"byteLength":3048,
			"byteOffset":3048,
			"target":34962
		},
		{
			"buffer":0,
			"byteLength":2032,
			"byteOffset":6096,
			"target":34962
		},
		{
			"buffer":0,
			"byteLength":1016,
			"byteOffset":8128,
			"target":34962
		},
		{
			"buffer":0,
			"byteLength":2032,
			"byteOffset":9144,
			"target":34962
		},
		{
			"buffer":0,
			"byteLength":1272,
			"byteOffset":11176,
			"target":34963
		},
		{
			"buffer":0,
			"byteLength":168,
			"byteOffset":12448,
			"target":34962
		},
		{
			"buffer":0,
			"byteLength":168,
			"byteOffset":12616,
			"target":34962
		},
		{
			"buffer":0,
			"byteLength":112,
			"byteOffset":12784,
			"target":34962
		},
		{
			"buffer":0,
			"byteLength":56,
			"byteOffset":12896,
			"target":34962
		},
		{
			"buffer":0,
			"byteLength":112,
			"byteOffset":12952,
			"target":34962
		},
		{
			"buffer":0,
			"byteLength":72,
			"byteOffset":13064,
			"target":34963
		}
	],
	"samplers":[
		{
			"magFilter":9729,
			"minFilter":9987
		}
	],
	"buffers":[
		{
			"byteLength":13136,
			"uri":"fuelInlet.bin"
		}
	]
}
