{
	"asset":{
		"generator":"Khronos glTF Blender I/O v5.1.19",
		"version":"2.0"
	},
	"scene":0,
	"scenes":[
		{
			"name":"Scene",
			"nodes":[
				0
			]
		}
	],
	"nodes":[
		{
			"mesh":0,
			"name":"Bed_Single"
		}
	],
	"materials":[
		{
			"doubleSided":true,
			"name":"Blanket",
			"pbrMetallicRoughness":{
				"baseColorFactor":[
					0.018725644797086716,
					0.01670653559267521,
					0.1529003232717514,
					1
				],
				"metallicFactor":0,
				"roughnessFactor":0.5
			}
		},
		{
			"doubleSided":true,
			"name":"Wood_bed",
			"pbrMetallicRoughness":{
				"baseColorFactor":[
					0.15291614830493927,
					0.052833788096904755,
					0.009391668252646923,
					1
				],
				"metallicFactor":0,
				"roughnessFactor":0.5
			}
		},
		{
			"doubleSided":true,
			"name":"Mattress",
			"pbrMetallicRoughness":{
				"baseColorFactor":[
					0.5070684552192688,
					0.5070684552192688,
					0.5070684552192688,
					1
				],
				"metallicFactor":0,
				"roughnessFactor":0.5
			}
		},
		{
			"doubleSided":true,
			"name":"Pillow",
			"pbrMetallicRoughness":{
				"metallicFactor":0,
				"roughnessFactor":0.5
			}
		}
	],
	"meshes":[
		{
			"name":"Cube.006",
			"primitives":[
				{
					"attributes":{
						"POSITION":0,
						"NORMAL":1,
						"TEXCOORD_0":2
					},
					"indices":3,
					"material":0
				},
				{
					"attributes":{
						"POSITION":4,
						"NORMAL":5,
						"TEXCOORD_0":6
					},
					"indices":7,
					"material":1
				},
				{
					"attributes":{
						"POSITION":8,
						"NORMAL":9,
						"TEXCOORD_0":10
					},
					"indices":11,
					"material":2
				},
				{
					"attributes":{
						"POSITION":12,
						"NORMAL":13,
						"TEXCOORD_0":14
					},
					"indices":15,
					"material":3
				}
			]
		}
	],
	"accessors":[
		{
			"bufferView":0,
			"componentType":5126,
			"count":48,
			"max":[
				0.6139088869094849,
				0.03160472214221954,
				0.5194997787475586
			],
			"min":[
				-0.5788139700889587,
				-0.350406676530838,
				-1.3104195594787598
			],
			"type":"VEC3"
		},
		{
			"bufferView":1,
			"componentType":5126,
			"count":48,
			"type":"VEC3"
		},
		{
			"bufferView":2,
			"componentType":5126,
			"count":48,
			"type":"VEC2"
		},
		{
			"bufferView":3,
			"componentType":5123,
			"count":84,
			"type":"SCALAR"
		},
		{
			"bufferView":4,
			"componentType":5126,
			"count":627,
			"max":[
				0.8283047080039978,
				0.7404659986495972,
				1.2864446640014648
			],
			"min":[
				-0.793209969997406,
				-0.6954604387283325,
				-1.4955304861068726
			],
			"type":"VEC3"
		},
		{
			"bufferView":5,
			"componentType":5126,
			"count":627,
			"type":"VEC3"
		},
		{
			"bufferView":6,
			"componentType":5126,
			"count":627,
			"type":"VEC2"
		},
		{
			"bufferView":7,
			"componentType":5123,
			"count":1038,
			"type":"SCALAR"
		},
		{
			"bufferView":8,
			"componentType":5126,
			"count":20,
			"max":[
				0.5850987434387207,
				-0.014862213283777237,
				1.0734601020812988
			],
			"min":[
				-0.5500038862228394,
				-0.3784187436103821,
				-1.2662180662155151
			],
			"type":"VEC3"
		},
		{
			"bufferView":9,
			"componentType":5126,
			"count":20,
			"type":"VEC3"
		},
		{
			"bufferView":10,
			"componentType":5126,
			"count":20,
			"type":"VEC2"
		},
		{
			"bufferView":11,
			"componentType":5123,
			"count":30,
			"type":"SCALAR"
		},
		{
			"bufferView":12,
			"componentType":5126,
			"count":102,
			"max":[
				0.3424823582172394,
				0.17823699116706848,
				1.0559395551681519
			],
			"min":[
				-0.3094300329685211,
				-0.013447973877191544,
				0.5572495460510254
			],
			"type":"VEC3"
		},
		{
			"bufferView":13,
			"componentType":5126,
			"count":102,
			"type":"VEC3"
		},
		{
			"bufferView":14,
			"componentType":5126,
			"count":102,
			"type":"VEC2"
		},
		{
			"bufferView":15,
			"componentType":5123,
			"count":168,
			"type":"SCALAR"
		}
	],
	"bufferViews":[
		{
			"buffer":0,
			"byteLength":576,
			"byteOffset":0,
			"target":34962
		},
		{
			"buffer":0,
			"byteLength":576,
			"byteOffset":576,
			"target":34962
		},
		{
			"buffer":0,
			"byteLength":384,
			"byteOffset":1152,
			"target":34962
		},
		{
			"buffer":0,
			"byteLength":168,
			"byteOffset":1536,
			"target":34963
		},
		{
			"buffer":0,
			"byteLength":7524,
			"byteOffset":1704,
			"target":34962
		},
		{
			"buffer":0,
			"byteLength":7524,
			"byteOffset":9228,
			"target":34962
		},
		{
			"buffer":0,
			"byteLength":5016,
			"byteOffset":16752,
			"target":34962
		},
		{
			"buffer":0,
			"byteLength":2076,
			"byteOffset":21768,
			"target":34963
		},
		{
			"buffer":0,
			"byteLength":240,
			"byteOffset":23844,
			"target":34962
		},
		{
			"buffer":0,
			"byteLength":240,
			"byteOffset":24084,
			"target":34962
		},
		{
			"buffer":0,
			"byteLength":160,
			"byteOffset":24324,
			"target":34962
		},
		{
			"buffer":0,
			"byteLength":60,
			"byteOffset":24484,
			"target":34963
		},
		{
			"buffer":0,
			"byteLength":1224,
			"byteOffset":24544,
			"target":34962
		},
		{
			"buffer":0,
			"byteLength":1224,
			"byteOffset":25768,
			"target":34962
		},
		{
			"buffer":0,
			"byteLength":816,
			"byteOffset":26992,
			"target":34962
		},
		{
			"buffer":0,
			"byteLength":336,
			"byteOffset":27808,
			"target":34963
		}
	],
	"buffers":[
		{
			"byteLength":28144,
			"uri":"Bed_single.bin"
		}
	]
}
