{
	"asset":{
		"generator":"Khronos glTF Blender I/O v5.1.19",
		"version":"2.0"
	},
	"scene":0,
	"scenes":[
		{
			"name":"Scene",
			"nodes":[
				0,
				1
			]
		}
	],
	"nodes":[
		{
			"mesh":0,
			"name":"\u7acb\u65b9\u4f53",
			"scale":[
				0.05000000074505806,
				0.05000000074505806,
				1.2000000476837158
			],
			"translation":[
				0,
				0,
				-0.6810370087623596
			]
		},
		{
			"mesh":1,
			"name":"EmptyMesh",
			"scale":[
				2,
				1.5,
				1.5
			],
			"translation":[
				-0.4566258192062378,
				0,
				1.579037070274353
			]
		}
	],
	"materials":[
		{
			"alphaMode":"BLEND",
			"doubleSided":true,
			"name":"\u30de\u30c6\u30ea\u30a2\u30eb",
			"pbrMetallicRoughness":{
				"baseColorFactor":[
					0.6728925704956055,
					0.8000229597091675,
					0.015822404995560646,
					0.75
				],
				"metallicFactor":0,
				"roughnessFactor":0.5
			}
		},
		{
			"doubleSided":true,
			"name":"Material.001",
			"pbrMetallicRoughness":{
				"baseColorFactor":[
					0.6359257102012634,
					0.5972990989685059,
					0.5972990989685059,
					1
				],
				"metallicFactor":0,
				"roughnessFactor":0.5
			}
		}
	],
	"meshes":[
		{
			"name":"\u7acb\u65b9\u4f53",
			"primitives":[
				{
					"attributes":{
						"POSITION":0,
						"NORMAL":1,
						"TEXCOORD_0":2
					},
					"indices":3,
					"material":0
				}
			]
		},
		{
			"name":"EmptyMesh",
			"primitives":[
				{
					"attributes":{
						"POSITION":4,
						"NORMAL":5,
						"TEXCOORD_0":6,
						"TEXCOORD_1":7
					},
					"indices":8,
					"material":1
				}
			]
		}
	],
	"accessors":[
		{
			"bufferView":0,
			"componentType":5126,
			"count":24,
			"max":[
				1,
				1,
				1
			],
			"min":[
				-1,
				-1,
				-1
			],
			"type":"VEC3"
		},
		{
			"bufferView":1,
			"componentType":5126,
			"count":24,
			"type":"VEC3"
		},
		{
			"bufferView":2,
			"componentType":5126,
			"count":24,
			"type":"VEC2"
		},
		{
			"bufferView":3,
			"componentType":5123,
			"count":36,
			"type":"SCALAR"
		},
		{
			"bufferView":4,
			"componentType":5126,
			"count":124,
			"max":[
				0.32354429364204407,
				0.055219441652297974,
				0.2602289915084839
			],
			"min":[
				0.15343497693538666,
				-0.005817123223096132,
				-0.7259626388549805
			],
			"type":"VEC3"
		},
		{
			"bufferView":5,
			"componentType":5126,
			"count":124,
			"type":"VEC3"
		},
		{
			"bufferView":6,
			"componentType":5126,
			"count":124,
			"type":"VEC2"
		},
		{
			"bufferView":7,
			"componentType":5126,
			"count":124,
			"type":"VEC2"
		},
		{
			"bufferView":8,
			"componentType":5123,
			"count":336,
			"type":"SCALAR"
		}
	],
	"bufferViews":[
		{
			"buffer":0,
			"byteLength":288,
			"byteOffset":0,
			"target":34962
		},
		{
			"buffer":0,
			"byteLength":288,
			"byteOffset":288,
			"target":34962
		},
		{
			"buffer":0,
			"byteLength":192,
			"byteOffset":576,
			"target":34962
		},
		{
			"buffer":0,
			"byteLength":72,
			"byteOffset":768,
			"target":34963
		},
		{
			"buffer":0,
			"byteLength":1488,
			"byteOffset":840,
			"target":34962
		},
		{
			"buffer":0,
			"byteLength":1488,
			"byteOffset":2328,
			"target":34962
		},
		{
			"buffer":0,
			"byteLength":992,
			"byteOffset":3816,
			"target":34962
		},
		{
			"buffer":0,
			"byteLength":992,
			"byteOffset":4808,
			"target":34962
		},
		{
			"buffer":0,
			"byteLength":672,
			"byteOffset":5800,
			"target":34963
		}
	],
	"buffers":[
		{
			"byteLength":6472,
			"uri":"spoon.bin"
		}
	]
}
