{
	"asset":{
		"generator":"Khronos glTF Blender I/O v5.1.19",
		"version":"2.0"
	},
	"scene":0,
	"scenes":[
		{
			"name":"Scene",
			"nodes":[
				0,
				1
			]
		}
	],
	"nodes":[
		{
			"mesh":0,
			"name":"leaves_Icosphere",
			"rotation":[
				0.7071068286895752,
				0,
				0,
				0.7071068286895752
			],
			"scale":[
				0.25,
				0.25,
				0.25
			]
		},
		{
			"mesh":1,
			"name":"trunk_Cube",
			"rotation":[
				0.7071068286895752,
				0,
				0,
				0.7071068286895752
			],
			"scale":[
				0.25,
				0.25,
				0.25
			]
		}
	],
	"materials":[
		{
			"doubleSided":true,
			"name":"tree_green",
			"pbrMetallicRoughness":{
				"baseColorFactor":[
					0.01246602088212967,
					0.6400251984596252,
					0.13476084172725677,
					1
				],
				"metallicFactor":0,
				"roughnessFactor":0.6900347471237183
			}
		},
		{
			"doubleSided":true,
			"name":"tree_bark_dark",
			"pbrMetallicRoughness":{
				"baseColorFactor":[
					0.6400130391120911,
					0.22573505342006683,
					0.008319745771586895,
					1
				],
				"metallicFactor":0,
				"roughnessFactor":0.6900347471237183
			}
		}
	],
	"meshes":[
		{
			"name":"leaves_Icosphere",
			"primitives":[
				{
					"attributes":{
						"POSITION":0,
						"NORMAL":1
					},
					"indices":2,
					"material":0
				}
			]
		},
		{
			"name":"trunk_Cube",
			"primitives":[
				{
					"attributes":{
						"POSITION":3,
						"NORMAL":4
					},
					"indices":5,
					"material":1
				}
			]
		}
	],
	"accessors":[
		{
			"bufferView":0,
			"componentType":5126,
			"count":710,
			"max":[
				2.905853033065796,
				2.7302370071411133,
				-4.081585884094238
			],
			"min":[
				-4.4365668296813965,
				-2.702651023864746,
				-8.621627807617188
			],
			"type":"VEC3"
		},
		{
			"bufferView":1,
			"componentType":5126,
			"count":710,
			"type":"VEC3"
		},
		{
			"bufferView":2,
			"componentType":5123,
			"count":720,
			"type":"SCALAR"
		},
		{
			"bufferView":3,
			"componentType":5126,
			"count":306,
			"max":[
				1.4917049407958984,
				1.120934009552002,
				0.09854800254106522
			],
			"min":[
				-1.9779579639434814,
				-0.5707160234451294,
				-6.873898029327393
			],
			"type":"VEC3"
		},
		{
			"bufferView":4,
			"componentType":5126,
			"count":306,
			"type":"VEC3"
		},
		{
			"bufferView":5,
			"componentType":5123,
			"count":312,
			"type":"SCALAR"
		}
	],
	"bufferViews":[
		{
			"buffer":0,
			"byteLength":8520,
			"byteOffset":0,
			"target":34962
		},
		{
			"buffer":0,
			"byteLength":8520,
			"byteOffset":8520,
			"target":34962
		},
		{
			"buffer":0,
			"byteLength":1440,
			"byteOffset":17040,
			"target":34963
		},
		{
			"buffer":0,
			"byteLength":3672,
			"byteOffset":18480,
			"target":34962
		},
		{
			"buffer":0,
			"byteLength":3672,
			"byteOffset":22152,
			"target":34962
		},
		{
			"buffer":0,
			"byteLength":624,
			"byteOffset":25824,
			"target":34963
		}
	],
	"buffers":[
		{
			"byteLength":26448,
			"uri":"Tree2.bin"
		}
	]
}
