{
	"asset":{
		"generator":"Khronos glTF Blender I/O v5.1.19",
		"version":"2.0"
	},
	"scene":0,
	"scenes":[
		{
			"name":"Scene",
			"nodes":[
				0,
				1
			]
		}
	],
	"nodes":[
		{
			"mesh":0,
			"name":"leaves_Icosphere.002",
			"rotation":[
				0.7071068286895752,
				0,
				0,
				0.7071068286895752
			],
			"scale":[
				0.25,
				0.25,
				0.25
			]
		},
		{
			"mesh":1,
			"name":"trunk_Cube",
			"rotation":[
				0.7071068286895752,
				0,
				0,
				0.7071068286895752
			],
			"scale":[
				0.25,
				0.25,
				0.25
			]
		}
	],
	"materials":[
		{
			"doubleSided":true,
			"name":"tree_green",
			"pbrMetallicRoughness":{
				"baseColorFactor":[
					0.0046373591758310795,
					0.6400130391120911,
					0.1063026413321495,
					1
				],
				"metallicFactor":0,
				"roughnessFactor":0.6900347471237183
			}
		},
		{
			"doubleSided":true,
			"name":"tree_bark_light",
			"pbrMetallicRoughness":{
				"baseColorFactor":[
					0.6400130391120911,
					0.18857428431510925,
					0.031193222850561142,
					1
				],
				"metallicFactor":0,
				"roughnessFactor":0.6900347471237183
			}
		}
	],
	"meshes":[
		{
			"name":"leaves_Icosphere.002",
			"primitives":[
				{
					"attributes":{
						"POSITION":0,
						"NORMAL":1
					},
					"indices":2,
					"material":0
				}
			]
		},
		{
			"name":"trunk_Cube",
			"primitives":[
				{
					"attributes":{
						"POSITION":3,
						"NORMAL":4
					},
					"indices":5,
					"material":1
				}
			]
		}
	],
	"accessors":[
		{
			"bufferView":0,
			"componentType":5126,
			"count":476,
			"max":[
				3.0853829383850098,
				3.2387239933013916,
				-3.357637882232666
			],
			"min":[
				-3.9227640628814697,
				-2.80267596244812,
				-7.963503837585449
			],
			"type":"VEC3"
		},
		{
			"bufferView":1,
			"componentType":5126,
			"count":476,
			"type":"VEC3"
		},
		{
			"bufferView":2,
			"componentType":5123,
			"count":480,
			"type":"SCALAR"
		},
		{
			"bufferView":3,
			"componentType":5126,
			"count":574,
			"max":[
				0.44546300172805786,
				1.8016430139541626,
				0.026693999767303467
			],
			"min":[
				-1.103991985321045,
				-0.9647300243377686,
				-4.239047050476074
			],
			"type":"VEC3"
		},
		{
			"bufferView":4,
			"componentType":5126,
			"count":574,
			"type":"VEC3"
		},
		{
			"bufferView":5,
			"componentType":5123,
			"count":606,
			"type":"SCALAR"
		}
	],
	"bufferViews":[
		{
			"buffer":0,
			"byteLength":5712,
			"byteOffset":0,
			"target":34962
		},
		{
			"buffer":0,
			"byteLength":5712,
			"byteOffset":5712,
			"target":34962
		},
		{
			"buffer":0,
			"byteLength":960,
			"byteOffset":11424,
			"target":34963
		},
		{
			"buffer":0,
			"byteLength":6888,
			"byteOffset":12384,
			"target":34962
		},
		{
			"buffer":0,
			"byteLength":6888,
			"byteOffset":19272,
			"target":34962
		},
		{
			"buffer":0,
			"byteLength":1212,
			"byteOffset":26160,
			"target":34963
		}
	],
	"buffers":[
		{
			"byteLength":27372,
			"uri":"tree.bin"
		}
	]
}
