{
	"asset":{
		"generator":"Khronos glTF Blender I/O v5.1.19",
		"version":"2.0"
	},
	"scene":0,
	"scenes":[
		{
			"name":"Scene",
			"nodes":[
				0
			]
		}
	],
	"nodes":[
		{
			"mesh":0,
			"name":"\u677f.001",
			"scale":[
				16,
				0.10000000149011612,
				11.25
			],
			"translation":[
				0,
				0,
				-1.5
			]
		}
	],
	"materials":[
		{
			"doubleSided":true,
			"name":"\u30de\u30c6\u30ea\u30a2\u30eb",
			"pbrMetallicRoughness":{
				"baseColorFactor":[
					0.800054669380188,
					0.27594438195228577,
					0.023632999509572983,
					1
				],
				"metallicFactor":0,
				"roughnessFactor":0.5
			}
		},
		{
			"doubleSided":true,
			"name":"\u30de\u30c6\u30ea\u30a2\u30eb.001",
			"pbrMetallicRoughness":{
				"baseColorFactor":[
					0.800054669380188,
					0.27594438195228577,
					0.023632999509572983,
					1
				],
				"metallicFactor":0,
				"roughnessFactor":0.5
			}
		},
		{
			"doubleSided":true,
			"name":"\u30de\u30c6\u30ea\u30a2\u30eb.003",
			"pbrMetallicRoughness":{
				"baseColorFactor":[
					0.800054669380188,
					0.27594438195228577,
					0.023632999509572983,
					1
				],
				"metallicFactor":0,
				"roughnessFactor":0.5
			}
		},
		{
			"doubleSided":true,
			"name":"\u30de\u30c6\u30ea\u30a2\u30eb.005",
			"pbrMetallicRoughness":{
				"baseColorFactor":[
					0.800054669380188,
					0.27594438195228577,
					0.023632999509572983,
					1
				],
				"metallicFactor":0,
				"roughnessFactor":0.5
			}
		},
		{
			"doubleSided":true,
			"name":"\u30de\u30c6\u30ea\u30a2\u30eb.006",
			"pbrMetallicRoughness":{
				"baseColorFactor":[
					0.21402913331985474,
					0.21403303742408752,
					0.21403686702251434,
					1
				],
				"metallicFactor":0,
				"roughnessFactor":0.5
			}
		},
		{
			"doubleSided":true,
			"name":"\u30de\u30c6\u30ea\u30a2\u30eb.007",
			"pbrMetallicRoughness":{
				"baseColorFactor":[
					0.21402913331985474,
					0.21403303742408752,
					0.21403686702251434,
					1
				],
				"metallicFactor":0,
				"roughnessFactor":0.5
			}
		},
		{
			"doubleSided":true,
			"name":"\u30de\u30c6\u30ea\u30a2\u30eb.008",
			"pbrMetallicRoughness":{
				"baseColorFactor":[
					0.800054669380188,
					0.27594438195228577,
					0.023632999509572983,
					1
				],
				"metallicFactor":0,
				"roughnessFactor":0.5
			}
		},
		{
			"doubleSided":true,
			"name":"\u30de\u30c6\u30ea\u30a2\u30eb.009",
			"pbrMetallicRoughness":{
				"baseColorFactor":[
					0.800054669380188,
					0.27594438195228577,
					0.023632999509572983,
					1
				],
				"metallicFactor":0,
				"roughnessFactor":0.5
			}
		},
		{
			"doubleSided":true,
			"name":"\u30de\u30c6\u30ea\u30a2\u30eb.011",
			"pbrMetallicRoughness":{
				"baseColorFactor":[
					0.800054669380188,
					0.27594438195228577,
					0.023632999509572983,
					1
				],
				"metallicFactor":0,
				"roughnessFactor":0.5
			}
		}
	],
	"meshes":[
		{
			"name":"\u7acb\u65b9\u4f53",
			"primitives":[
				{
					"attributes":{
						"POSITION":0,
						"NORMAL":1,
						"TEXCOORD_0":2
					},
					"indices":3,
					"material":0
				},
				{
					"attributes":{
						"POSITION":4,
						"NORMAL":5,
						"TEXCOORD_0":6
					},
					"indices":3,
					"material":1
				},
				{
					"attributes":{
						"POSITION":7,
						"NORMAL":8,
						"TEXCOORD_0":9
					},
					"indices":3,
					"material":2
				},
				{
					"attributes":{
						"POSITION":10,
						"NORMAL":11,
						"TEXCOORD_0":12
					},
					"indices":3,
					"material":3
				},
				{
					"attributes":{
						"POSITION":13,
						"NORMAL":14,
						"TEXCOORD_0":15
					},
					"indices":3,
					"material":4
				},
				{
					"attributes":{
						"POSITION":16,
						"NORMAL":17,
						"TEXCOORD_0":18
					},
					"indices":3,
					"material":5
				},
				{
					"attributes":{
						"POSITION":19,
						"NORMAL":20,
						"TEXCOORD_0":21
					},
					"indices":3,
					"material":6
				},
				{
					"attributes":{
						"POSITION":22,
						"NORMAL":23,
						"TEXCOORD_0":24
					},
					"indices":3,
					"material":7
				},
				{
					"attributes":{
						"POSITION":25,
						"NORMAL":26,
						"TEXCOORD_0":27
					},
					"indices":3,
					"material":8
				}
			]
		}
	],
	"accessors":[
		{
			"bufferView":0,
			"componentType":5126,
			"count":24,
			"max":[
				1,
				1,
				1
			],
			"min":[
				-1,
				-1,
				-1
			],
			"type":"VEC3"
		},
		{
			"bufferView":1,
			"componentType":5126,
			"count":24,
			"type":"VEC3"
		},
		{
			"bufferView":2,
			"componentType":5126,
			"count":24,
			"type":"VEC2"
		},
		{
			"bufferView":3,
			"componentType":5123,
			"count":36,
			"type":"SCALAR"
		},
		{
			"bufferView":4,
			"componentType":5126,
			"count":24,
			"max":[
				1,
				1,
				5
			],
			"min":[
				-1,
				-1,
				3
			],
			"type":"VEC3"
		},
		{
			"bufferView":5,
			"componentType":5126,
			"count":24,
			"type":"VEC3"
		},
		{
			"bufferView":6,
			"componentType":5126,
			"count":24,
			"type":"VEC2"
		},
		{
			"bufferView":7,
			"componentType":5126,
			"count":24,
			"max":[
				1,
				1,
				9
			],
			"min":[
				-1,
				-1,
				7
			],
			"type":"VEC3"
		},
		{
			"bufferView":8,
			"componentType":5126,
			"count":24,
			"type":"VEC3"
		},
		{
			"bufferView":9,
			"componentType":5126,
			"count":24,
			"type":"VEC2"
		},
		{
			"bufferView":10,
			"componentType":5126,
			"count":24,
			"max":[
				1,
				1,
				-7
			],
			"min":[
				-1,
				-1,
				-9
			],
			"type":"VEC3"
		},
		{
			"bufferView":11,
			"componentType":5126,
			"count":24,
			"type":"VEC3"
		},
		{
			"bufferView":12,
			"componentType":5126,
			"count":24,
			"type":"VEC2"
		},
		{
			"bufferView":13,
			"componentType":5126,
			"count":24,
			"max":[
				0.71875,
				2.3999996185302734,
				17.093334197998047
			],
			"min":[
				0.53125,
				-0.9999998807907104,
				-10.90666675567627
			],
			"type":"VEC3"
		},
		{
			"bufferView":14,
			"componentType":5126,
			"count":24,
			"type":"VEC3"
		},
		{
			"bufferView":15,
			"componentType":5126,
			"count":24,
			"type":"VEC2"
		},
		{
			"bufferView":16,
			"componentType":5126,
			"count":24,
			"max":[
				-0.53125,
				2.3999996185302734,
				17.093334197998047
			],
			"min":[
				-0.71875,
				-0.9999998807907104,
				-10.90666675567627
			],
			"type":"VEC3"
		},
		{
			"bufferView":17,
			"componentType":5126,
			"count":24,
			"type":"VEC3"
		},
		{
			"bufferView":18,
			"componentType":5126,
			"count":24,
			"type":"VEC2"
		},
		{
			"bufferView":19,
			"componentType":5126,
			"count":24,
			"max":[
				1,
				1,
				13
			],
			"min":[
				-1,
				-1,
				11
			],
			"type":"VEC3"
		},
		{
			"bufferView":20,
			"componentType":5126,
			"count":24,
			"type":"VEC3"
		},
		{
			"bufferView":21,
			"componentType":5126,
			"count":24,
			"type":"VEC2"
		},
		{
			"bufferView":22,
			"componentType":5126,
			"count":24,
			"max":[
				1,
				1,
				-3
			],
			"min":[
				-1,
				-1,
				-5
			],
			"type":"VEC3"
		},
		{
			"bufferView":23,
			"componentType":5126,
			"count":24,
			"type":"VEC3"
		},
		{
			"bufferView":24,
			"componentType":5126,
			"count":24,
			"type":"VEC2"
		},
		{
			"bufferView":25,
			"componentType":5126,
			"count":24,
			"max":[
				1,
				1,
				17
			],
			"min":[
				-1,
				-1,
				15
			],
			"type":"VEC3"
		},
		{
			"bufferView":26,
			"componentType":5126,
			"count":24,
			"type":"VEC3"
		},
		{
			"bufferView":27,
			"componentType":5126,
			"count":24,
			"type":"VEC2"
		}
	],
	"bufferViews":[
		{
			"buffer":0,
			"byteLength":288,
			"byteOffset":0,
			"target":34962
		},
		{
			"buffer":0,
			"byteLength":288,
			"byteOffset":288,
			"target":34962
		},
		{
			"buffer":0,
			"byteLength":192,
			"byteOffset":576,
			"target":34962
		},
		{
			"buffer":0,
			"byteLength":72,
			"byteOffset":768,
			"target":34963
		},
		{
			"buffer":0,
			"byteLength":288,
			"byteOffset":840,
			"target":34962
		},
		{
			"buffer":0,
			"byteLength":288,
			"byteOffset":1128,
			"target":34962
		},
		{
			"buffer":0,
			"byteLength":192,
			"byteOffset":1416,
			"target":34962
		},
		{
			"buffer":0,
			"byteLength":288,
			"byteOffset":1608,
			"target":34962
		},
		{
			"buffer":0,
			"byteLength":288,
			"byteOffset":1896,
			"target":34962
		},
		{
			"buffer":0,
			"byteLength":192,
			"byteOffset":2184,
			"target":34962
		},
		{
			"buffer":0,
			"byteLength":288,
			"byteOffset":2376,
			"target":34962
		},
		{
			"buffer":0,
			"byteLength":288,
			"byteOffset":2664,
			"target":34962
		},
		{
			"buffer":0,
			"byteLength":192,
			"byteOffset":2952,
			"target":34962
		},
		{
			"buffer":0,
			"byteLength":288,
			"byteOffset":3144,
			"target":34962
		},
		{
			"buffer":0,
			"byteLength":288,
			"byteOffset":3432,
			"target":34962
		},
		{
			"buffer":0,
			"byteLength":192,
			"byteOffset":3720,
			"target":34962
		},
		{
			"buffer":0,
			"byteLength":288,
			"byteOffset":3912,
			"target":34962
		},
		{
			"buffer":0,
			"byteLength":288,
			"byteOffset":4200,
			"target":34962
		},
		{
			"buffer":0,
			"byteLength":192,
			"byteOffset":4488,
			"target":34962
		},
		{
			"buffer":0,
			"byteLength":288,
			"byteOffset":4680,
			"target":34962
		},
		{
			"buffer":0,
			"byteLength":288,
			"byteOffset":4968,
			"target":34962
		},
		{
			"buffer":0,
			"byteLength":192,
			"byteOffset":5256,
			"target":34962
		},
		{
			"buffer":0,
			"byteLength":288,
			"byteOffset":5448,
			"target":34962
		},
		{
			"buffer":0,
			"byteLength":288,
			"byteOffset":5736,
			"target":34962
		},
		{
			"buffer":0,
			"byteLength":192,
			"byteOffset":6024,
			"target":34962
		},
		{
			"buffer":0,
			"byteLength":288,
			"byteOffset":6216,
			"target":34962
		},
		{
			"buffer":0,
			"byteLength":288,
			"byteOffset":6504,
			"target":34962
		},
		{
			"buffer":0,
			"byteLength":192,
			"byteOffset":6792,
			"target":34962
		}
	],
	"buffers":[
		{
			"byteLength":6984,
			"uri":"Rail.bin"
		}
	]
}
