{
	"asset":{
		"generator":"Khronos glTF Blender I/O v5.1.19",
		"version":"2.0"
	},
	"scene":0,
	"scenes":[
		{
			"name":"Scene",
			"nodes":[
				0,
				1,
				2
			]
		}
	],
	"nodes":[
		{
			"mesh":0,
			"name":"Cube",
			"scale":[
				1,
				1,
				2.4776856899261475
			]
		},
		{
			"mesh":1,
			"name":"\u7acb\u65b9\u4f53",
			"translation":[
				0,
				1.96128249168396,
				0.5447450280189514
			]
		},
		{
			"mesh":2,
			"name":"\u5186\u67f1",
			"translation":[
				0,
				3.2483274936676025,
				1.1389052867889404
			]
		}
	],
	"materials":[
		{
			"doubleSided":true,
			"name":"Material",
			"pbrMetallicRoughness":{
				"baseColorFactor":[
					0.0007738015847280622,
					0,
					0,
					1
				],
				"metallicFactor":0,
				"roughnessFactor":0.5
			}
		},
		{
			"doubleSided":true,
			"name":"\u30de\u30c6\u30ea\u30a2\u30eb",
			"pbrMetallicRoughness":{
				"baseColorFactor":[
					0.8000937700271606,
					0.003968402743339539,
					0,
					1
				],
				"metallicFactor":0,
				"roughnessFactor":0.5
			}
		},
		{
			"doubleSided":true,
			"name":"\u30de\u30c6\u30ea\u30a2\u30eb.001",
			"pbrMetallicRoughness":{
				"baseColorFactor":[
					0.8000156879425049,
					0.3444048762321472,
					0.002557273954153061,
					1
				],
				"metallicFactor":0,
				"roughnessFactor":0.5
			}
		},
		{
			"doubleSided":true,
			"name":"\u30de\u30c6\u30ea\u30a2\u30eb.002",
			"pbrMetallicRoughness":{
				"baseColorFactor":[
					0.7984585762023926,
					0.48240983486175537,
					0.8000074625015259,
					1
				],
				"metallicFactor":0,
				"roughnessFactor":0.5
			}
		},
		{
			"doubleSided":true,
			"name":"\u30de\u30c6\u30ea\u30a2\u30eb.003",
			"pbrMetallicRoughness":{
				"baseColorFactor":[
					0.26460570096969604,
					0.7856811881065369,
					0.8000074625015259,
					1
				],
				"metallicFactor":0,
				"roughnessFactor":0.5
			}
		},
		{
			"doubleSided":true,
			"name":"\u30de\u30c6\u30ea\u30a2\u30eb.004",
			"pbrMetallicRoughness":{
				"baseColorFactor":[
					0.8000074625015259,
					0.02701883763074875,
					0.3203488290309906,
					1
				],
				"metallicFactor":0,
				"roughnessFactor":0.5
			}
		}
	],
	"meshes":[
		{
			"name":"Cube",
			"primitives":[
				{
					"attributes":{
						"POSITION":0,
						"NORMAL":1,
						"TEXCOORD_0":2
					},
					"indices":3,
					"material":0
				},
				{
					"attributes":{
						"POSITION":4,
						"NORMAL":5,
						"TEXCOORD_0":6
					},
					"indices":7,
					"material":1
				},
				{
					"attributes":{
						"POSITION":8,
						"NORMAL":9,
						"TEXCOORD_0":10
					},
					"indices":11,
					"material":2
				}
			]
		},
		{
			"name":"\u7acb\u65b9\u4f53",
			"primitives":[
				{
					"attributes":{
						"POSITION":12,
						"NORMAL":13,
						"TEXCOORD_0":14
					},
					"indices":15,
					"material":3
				}
			]
		},
		{
			"name":"\u5186\u67f1",
			"primitives":[
				{
					"attributes":{
						"POSITION":16,
						"NORMAL":17,
						"TEXCOORD_0":18
					},
					"indices":19,
					"material":4
				},
				{
					"attributes":{
						"POSITION":20,
						"NORMAL":21,
						"TEXCOORD_0":22
					},
					"indices":23,
					"material":5
				}
			]
		}
	],
	"accessors":[
		{
			"bufferView":0,
			"componentType":5126,
			"count":80,
			"max":[
				1,
				1.2445143461227417,
				1.2198574542999268
			],
			"min":[
				-1,
				-0.5,
				-1.3355679512023926
			],
			"type":"VEC3"
		},
		{
			"bufferView":1,
			"componentType":5126,
			"count":80,
			"type":"VEC3"
		},
		{
			"bufferView":2,
			"componentType":5126,
			"count":80,
			"type":"VEC2"
		},
		{
			"bufferView":3,
			"componentType":5123,
			"count":120,
			"type":"SCALAR"
		},
		{
			"bufferView":4,
			"componentType":5126,
			"count":20,
			"max":[
				0.640007495880127,
				-0.5,
				1.0237548351287842
			],
			"min":[
				-0.640007495880127,
				-1,
				-0.5001087188720703
			],
			"type":"VEC3"
		},
		{
			"bufferView":5,
			"componentType":5126,
			"count":20,
			"type":"VEC3"
		},
		{
			"bufferView":6,
			"componentType":5126,
			"count":20,
			"type":"VEC2"
		},
		{
			"bufferView":7,
			"componentType":5123,
			"count":30,
			"type":"SCALAR"
		},
		{
			"bufferView":8,
			"componentType":5126,
			"count":4,
			"max":[
				0.7678962349891663,
				1.0751330852508545,
				0.9232954382896423
			],
			"min":[
				-0.7678962349891663,
				1.0751330852508545,
				-1.039005994796753
			],
			"type":"VEC3"
		},
		{
			"bufferView":9,
			"componentType":5126,
			"count":4,
			"type":"VEC3"
		},
		{
			"bufferView":10,
			"componentType":5126,
			"count":4,
			"type":"VEC2"
		},
		{
			"bufferView":11,
			"componentType":5123,
			"count":6,
			"type":"SCALAR"
		},
		{
			"bufferView":12,
			"componentType":5126,
			"count":24,
			"max":[
				0.7138906121253967,
				0.5454591512680054,
				1.7195494174957275
			],
			"min":[
				-0.7138906121253967,
				-1.0095958709716797,
				-1.6856794357299805
			],
			"type":"VEC3"
		},
		{
			"bufferView":13,
			"componentType":5126,
			"count":24,
			"type":"VEC3"
		},
		{
			"bufferView":14,
			"componentType":5126,
			"count":24,
			"type":"VEC2"
		},
		{
			"bufferView":15,
			"componentType":5123,
			"count":36,
			"type":"SCALAR"
		},
		{
			"bufferView":16,
			"componentType":5126,
			"count":46,
			"max":[
				0.40485814213752747,
				0.08516021072864532,
				0.34439295530319214
			],
			"min":[
				-0.40485814213752747,
				-0.7833911776542664,
				-0.4256930947303772
			],
			"type":"VEC3"
		},
		{
			"bufferView":17,
			"componentType":5126,
			"count":46,
			"type":"VEC3"
		},
		{
			"bufferView":18,
			"componentType":5126,
			"count":46,
			"type":"VEC2"
		},
		{
			"bufferView":19,
			"componentType":5123,
			"count":138,
			"type":"SCALAR"
		},
		{
			"bufferView":20,
			"componentType":5126,
			"count":18,
			"max":[
				0.40485814213752747,
				-0.2405465543270111,
				0.34439295530319214
			],
			"min":[
				-0.40485814213752747,
				-0.45768439769744873,
				-0.4256930947303772
			],
			"type":"VEC3"
		},
		{
			"bufferView":21,
			"componentType":5126,
			"count":18,
			"type":"VEC3"
		},
		{
			"bufferView":22,
			"componentType":5126,
			"count":18,
			"type":"VEC2"
		},
		{
			"bufferView":23,
			"componentType":5123,
			"count":60,
			"type":"SCALAR"
		}
	],
	"bufferViews":[
		{
			"buffer":0,
			"byteLength":960,
			"byteOffset":0,
			"target":34962
		},
		{
			"buffer":0,
			"byteLength":960,
			"byteOffset":960,
			"target":34962
		},
		{
			"buffer":0,
			"byteLength":640,
			"byteOffset":1920,
			"target":34962
		},
		{
			"buffer":0,
			"byteLength":240,
			"byteOffset":2560,
			"target":34963
		},
		{
			"buffer":0,
			"byteLength":240,
			"byteOffset":2800,
			"target":34962
		},
		{
			"buffer":0,
			"byteLength":240,
			"byteOffset":3040,
			"target":34962
		},
		{
			"buffer":0,
			"byteLength":160,
			"byteOffset":3280,
			"target":34962
		},
		{
			"buffer":0,
			"byteLength":60,
			"byteOffset":3440,
			"target":34963
		},
		{
			"buffer":0,
			"byteLength":48,
			"byteOffset":3500,
			"target":34962
		},
		{
			"buffer":0,
			"byteLength":48,
			"byteOffset":3548,
			"target":34962
		},
		{
			"buffer":0,
			"byteLength":32,
			"byteOffset":3596,
			"target":34962
		},
		{
			"buffer":0,
			"byteLength":12,
			"byteOffset":3628,
			"target":34963
		},
		{
			"buffer":0,
			"byteLength":288,
			"byteOffset":3640,
			"target":34962
		},
		{
			"buffer":0,
			"byteLength":288,
			"byteOffset":3928,
			"target":34962
		},
		{
			"buffer":0,
			"byteLength":192,
			"byteOffset":4216,
			"target":34962
		},
		{
			"buffer":0,
			"byteLength":72,
			"byteOffset":4408,
			"target":34963
		},
		{
			"buffer":0,
			"byteLength":552,
			"byteOffset":4480,
			"target":34962
		},
		{
			"buffer":0,
			"byteLength":552,
			"byteOffset":5032,
			"target":34962
		},
		{
			"buffer":0,
			"byteLength":368,
			"byteOffset":5584,
			"target":34962
		},
		{
			"buffer":0,
			"byteLength":276,
			"byteOffset":5952,
			"target":34963
		},
		{
			"buffer":0,
			"byteLength":216,
			"byteOffset":6228,
			"target":34962
		},
		{
			"buffer":0,
			"byteLength":216,
			"byteOffset":6444,
			"target":34962
		},
		{
			"buffer":0,
			"byteLength":144,
			"byteOffset":6660,
			"target":34962
		},
		{
			"buffer":0,
			"byteLength":120,
			"byteOffset":6804,
			"target":34963
		}
	],
	"buffers":[
		{
			"byteLength":6924,
			"uri":"ship.bin"
		}
	]
}
