{
	"asset":{
		"generator":"Khronos glTF Blender I/O v5.1.19",
		"version":"2.0"
	},
	"scene":0,
	"scenes":[
		{
			"name":"Scene",
			"nodes":[
				0,
				1,
				2,
				3,
				4
			]
		}
	],
	"nodes":[
		{
			"mesh":0,
			"name":"Cone",
			"scale":[
				1.6643191576004028,
				0.9643191695213318,
				1.6643191576004028
			],
			"translation":[
				-0.0014902502298355103,
				5.515832901000977,
				-0.0021055564284324646
			]
		},
		{
			"mesh":1,
			"name":"Cylinder.001",
			"scale":[
				0.27990683913230896,
				2.5165066719055176,
				0.27968117594718933
			],
			"translation":[
				0,
				3.359734058380127,
				0
			]
		},
		{
			"mesh":2,
			"name":"Cylinder",
			"rotation":[
				0,
				0,
				1,
				4.371138828673793e-08
			],
			"translation":[
				0,
				0.43999332189559937,
				0
			]
		},
		{
			"mesh":3,
			"name":"Cone.001",
			"scale":[
				1.927124261856079,
				1.1165902614593506,
				1.927124261856079
			],
			"translation":[
				-0.0014902502298355103,
				4.630782604217529,
				-0.0021055564284324646
			]
		},
		{
			"mesh":4,
			"name":"Cone.002",
			"scale":[
				2.3602352142333984,
				1.3675380945205688,
				2.3602352142333984
			],
			"translation":[
				-0.0014902502298355103,
				3.5399889945983887,
				-0.0021055564284324646
			]
		}
	],
	"materials":[
		{
			"doubleSided":true,
			"name":"green",
			"pbrMetallicRoughness":{
				"baseColorFactor":[
					0.07399291545152664,
					0.363028883934021,
					0.07154374569654465,
					1
				],
				"metallicFactor":0,
				"roughnessFactor":0.5
			}
		},
		{
			"doubleSided":true,
			"name":"lightbrown",
			"pbrMetallicRoughness":{
				"baseColorFactor":[
					0.32244715094566345,
					0.1105932965874672,
					0.041301876306533813,
					1
				],
				"metallicFactor":0,
				"roughnessFactor":0.5
			}
		},
		{
			"doubleSided":true,
			"name":"brown",
			"pbrMetallicRoughness":{
				"baseColorFactor":[
					0.1352139115333557,
					0.04619158059358597,
					0.020555362105369568,
					1
				],
				"metallicFactor":0,
				"roughnessFactor":0.5
			}
		}
	],
	"meshes":[
		{
			"name":"Cone",
			"primitives":[
				{
					"attributes":{
						"POSITION":0,
						"NORMAL":1
					},
					"indices":2,
					"material":0
				}
			]
		},
		{
			"name":"Cylinder.002",
			"primitives":[
				{
					"attributes":{
						"POSITION":3,
						"NORMAL":4
					},
					"indices":5,
					"material":1
				}
			]
		},
		{
			"name":"Cylinder",
			"primitives":[
				{
					"attributes":{
						"POSITION":6,
						"NORMAL":7
					},
					"indices":8,
					"material":2
				}
			]
		},
		{
			"name":"Cone.001",
			"primitives":[
				{
					"attributes":{
						"POSITION":9,
						"NORMAL":10
					},
					"indices":2,
					"material":0
				}
			]
		},
		{
			"name":"Cone.002",
			"primitives":[
				{
					"attributes":{
						"POSITION":11,
						"NORMAL":12
					},
					"indices":2,
					"material":0
				}
			]
		}
	],
	"accessors":[
		{
			"bufferView":0,
			"componentType":5126,
			"count":33,
			"max":[
				1,
				1,
				1
			],
			"min":[
				-1,
				-1,
				-1
			],
			"type":"VEC3"
		},
		{
			"bufferView":1,
			"componentType":5126,
			"count":33,
			"type":"VEC3"
		},
		{
			"bufferView":2,
			"componentType":5123,
			"count":186,
			"type":"SCALAR"
		},
		{
			"bufferView":3,
			"componentType":5126,
			"count":64,
			"max":[
				1,
				1,
				1
			],
			"min":[
				-1,
				-1,
				-1
			],
			"type":"VEC3"
		},
		{
			"bufferView":4,
			"componentType":5126,
			"count":64,
			"type":"VEC3"
		},
		{
			"bufferView":5,
			"componentType":5123,
			"count":372,
			"type":"SCALAR"
		},
		{
			"bufferView":6,
			"componentType":5126,
			"count":209,
			"max":[
				1.606900930404663,
				1,
				1.5632922649383545
			],
			"min":[
				-1.6285574436187744,
				-1.0926446914672852,
				-1.672166109085083
			],
			"type":"VEC3"
		},
		{
			"bufferView":7,
			"componentType":5126,
			"count":209,
			"type":"VEC3"
		},
		{
			"bufferView":8,
			"componentType":5123,
			"count":1152,
			"type":"SCALAR"
		},
		{
			"bufferView":9,
			"componentType":5126,
			"count":33,
			"max":[
				1,
				1,
				1
			],
			"min":[
				-1,
				-1,
				-1
			],
			"type":"VEC3"
		},
		{
			"bufferView":10,
			"componentType":5126,
			"count":33,
			"type":"VEC3"
		},
		{
			"bufferView":11,
			"componentType":5126,
			"count":33,
			"max":[
				1,
				1,
				1
			],
			"min":[
				-1,
				-1,
				-1
			],
			"type":"VEC3"
		},
		{
			"bufferView":12,
			"componentType":5126,
			"count":33,
			"type":"VEC3"
		}
	],
	"bufferViews":[
		{
			"buffer":0,
			"byteLength":396,
			"byteOffset":0,
			"target":34962
		},
		{
			"buffer":0,
			"byteLength":396,
			"byteOffset":396,
			"target":34962
		},
		{
			"buffer":0,
			"byteLength":372,
			"byteOffset":792,
			"target":34963
		},
		{
			"buffer":0,
			"byteLength":768,
			"byteOffset":1164,
			"target":34962
		},
		{
			"buffer":0,
			"byteLength":768,
			"byteOffset":1932,
			"target":34962
		},
		{
			"buffer":0,
			"byteLength":744,
			"byteOffset":2700,
			"target":34963
		},
		{
			"buffer":0,
			"byteLength":2508,
			"byteOffset":3444,
			"target":34962
		},
		{
			"buffer":0,
			"byteLength":2508,
			"byteOffset":5952,
			"target":34962
		},
		{
			"buffer":0,
			"byteLength":2304,
			"byteOffset":8460,
			"target":34963
		},
		{
			"buffer":0,
			"byteLength":396,
			"byteOffset":10764,
			"target":34962
		},
		{
			"buffer":0,
			"byteLength":396,
			"byteOffset":11160,
			"target":34962
		},
		{
			"buffer":0,
			"byteLength":396,
			"byteOffset":11556,
			"target":34962
		},
		{
			"buffer":0,
			"byteLength":396,
			"byteOffset":11952,
			"target":34962
		}
	],
	"buffers":[
		{
			"byteLength":12348,
			"uri":"ChrisTree.bin"
		}
	]
}
