{
	"asset":{
		"generator":"Khronos glTF Blender I/O v5.1.19",
		"version":"2.0"
	},
	"scene":0,
	"scenes":[
		{
			"name":"Scene",
			"nodes":[
				0
			]
		}
	],
	"nodes":[
		{
			"mesh":0,
			"name":"Cone.001",
			"scale":[
				1.927124261856079,
				1.1165902614593506,
				1.927124261856079
			],
			"translation":[
				-0.0014902502298355103,
				4.630782604217529,
				-0.0021055564284324646
			]
		}
	],
	"materials":[
		{
			"doubleSided":true,
			"name":"green",
			"pbrMetallicRoughness":{
				"baseColorFactor":[
					0.07399291545152664,
					0.363028883934021,
					0.07154374569654465,
					1
				],
				"metallicFactor":0,
				"roughnessFactor":0.5
			}
		},
		{
			"doubleSided":true,
			"name":"lightbrown",
			"pbrMetallicRoughness":{
				"baseColorFactor":[
					0.32244715094566345,
					0.1105932965874672,
					0.041301876306533813,
					1
				],
				"metallicFactor":0,
				"roughnessFactor":0.5
			}
		},
		{
			"doubleSided":true,
			"name":"brown",
			"pbrMetallicRoughness":{
				"baseColorFactor":[
					0.1352139115333557,
					0.04619158059358597,
					0.020555362105369568,
					1
				],
				"metallicFactor":0,
				"roughnessFactor":0.5
			}
		}
	],
	"meshes":[
		{
			"name":"Cone.001",
			"primitives":[
				{
					"attributes":{
						"POSITION":0,
						"NORMAL":1
					},
					"indices":2,
					"material":0
				},
				{
					"attributes":{
						"POSITION":3,
						"NORMAL":4
					},
					"indices":5,
					"material":1
				},
				{
					"attributes":{
						"POSITION":6,
						"NORMAL":7
					},
					"indices":8,
					"material":2
				}
			]
		}
	],
	"accessors":[
		{
			"bufferView":0,
			"componentType":5126,
			"count":99,
			"max":[
				1.2247447967529297,
				1.6562654972076416,
				1.2247447967529297
			],
			"min":[
				-1.2247447967529297,
				-2.2016420364379883,
				-1.2247447967529297
			],
			"type":"VEC3"
		},
		{
			"bufferView":1,
			"componentType":5126,
			"count":99,
			"type":"VEC3"
		},
		{
			"bufferView":2,
			"componentType":5123,
			"count":558,
			"type":"SCALAR"
		},
		{
			"bufferView":3,
			"componentType":5126,
			"count":64,
			"max":[
				0.14601919054985046,
				1.1154122352600098,
				0.1462213695049286
			],
			"min":[
				-0.14447259902954102,
				-3.3920726776123047,
				-0.144036203622818
			],
			"type":"VEC3"
		},
		{
			"bufferView":4,
			"componentType":5126,
			"count":64,
			"type":"VEC3"
		},
		{
			"bufferView":5,
			"componentType":5123,
			"count":372,
			"type":"SCALAR"
		},
		{
			"bufferView":6,
			"componentType":5126,
			"count":286,
			"max":[
				0.8458448052406311,
				-2.7746477127075195,
				0.8122974038124084
			],
			"min":[
				-0.8330603837966919,
				-4.648786544799805,
				-0.8666077256202698
			],
			"type":"VEC3"
		},
		{
			"bufferView":7,
			"componentType":5126,
			"count":286,
			"type":"VEC3"
		},
		{
			"bufferView":8,
			"componentType":5123,
			"count":1152,
			"type":"SCALAR"
		}
	],
	"bufferViews":[
		{
			"buffer":0,
			"byteLength":1188,
			"byteOffset":0,
			"target":34962
		},
		{
			"buffer":0,
			"byteLength":1188,
			"byteOffset":1188,
			"target":34962
		},
		{
			"buffer":0,
			"byteLength":1116,
			"byteOffset":2376,
			"target":34963
		},
		{
			"buffer":0,
			"byteLength":768,
			"byteOffset":3492,
			"target":34962
		},
		{
			"buffer":0,
			"byteLength":768,
			"byteOffset":4260,
			"target":34962
		},
		{
			"buffer":0,
			"byteLength":744,
			"byteOffset":5028,
			"target":34963
		},
		{
			"buffer":0,
			"byteLength":3432,
			"byteOffset":5772,
			"target":34962
		},
		{
			"buffer":0,
			"byteLength":3432,
			"byteOffset":9204,
			"target":34962
		},
		{
			"buffer":0,
			"byteLength":2304,
			"byteOffset":12636,
			"target":34963
		}
	],
	"buffers":[
		{
			"byteLength":14940,
			"uri":"%E7%84%A1%E9%A1%8C.bin"
		}
	]
}
