{
	"asset":{
		"generator":"Khronos glTF Blender I/O v5.1.19",
		"version":"2.0"
	},
	"scene":0,
	"scenes":[
		{
			"name":"Scene",
			"nodes":[
				0
			]
		}
	],
	"nodes":[
		{
			"mesh":0,
			"name":"Dresser_02"
		}
	],
	"materials":[
		{
			"doubleSided":true,
			"name":"Dresser_Wood",
			"pbrMetallicRoughness":{
				"baseColorFactor":[
					0.22658415138721466,
					0.041082482784986496,
					0.015627576038241386,
					1
				],
				"metallicFactor":0,
				"roughnessFactor":0.5
			}
		},
		{
			"doubleSided":true,
			"name":"Dresser_Handle",
			"pbrMetallicRoughness":{
				"baseColorFactor":[
					0,
					0,
					0,
					1
				],
				"metallicFactor":0,
				"roughnessFactor":0.5
			}
		}
	],
	"meshes":[
		{
			"name":"Cube.003",
			"primitives":[
				{
					"attributes":{
						"POSITION":0,
						"NORMAL":1,
						"TEXCOORD_0":2
					},
					"indices":3,
					"material":0
				},
				{
					"attributes":{
						"POSITION":4,
						"NORMAL":5,
						"TEXCOORD_0":6
					},
					"indices":7,
					"material":1
				}
			]
		}
	],
	"accessors":[
		{
			"bufferView":0,
			"componentType":5126,
			"count":218,
			"max":[
				1.6922292709350586,
				1.2505475282669067,
				1.4106569290161133
			],
			"min":[
				-1.8102257251739502,
				-1.070202112197876,
				-0.10115104913711548
			],
			"type":"VEC3"
		},
		{
			"bufferView":1,
			"componentType":5126,
			"count":218,
			"type":"VEC3"
		},
		{
			"bufferView":2,
			"componentType":5126,
			"count":218,
			"type":"VEC2"
		},
		{
			"bufferView":3,
			"componentType":5123,
			"count":360,
			"type":"SCALAR"
		},
		{
			"bufferView":4,
			"componentType":5126,
			"count":504,
			"max":[
				1.1581978797912598,
				0.5324076414108276,
				-0.0734056830406189
			],
			"min":[
				-1.1104376316070557,
				-0.7397940158843994,
				-0.34809941053390503
			],
			"type":"VEC3"
		},
		{
			"bufferView":5,
			"componentType":5126,
			"count":504,
			"type":"VEC3"
		},
		{
			"bufferView":6,
			"componentType":5126,
			"count":504,
			"type":"VEC2"
		},
		{
			"bufferView":7,
			"componentType":5123,
			"count":936,
			"type":"SCALAR"
		}
	],
	"bufferViews":[
		{
			"buffer":0,
			"byteLength":2616,
			"byteOffset":0,
			"target":34962
		},
		{
			"buffer":0,
			"byteLength":2616,
			"byteOffset":2616,
			"target":34962
		},
		{
			"buffer":0,
			"byteLength":1744,
			"byteOffset":5232,
			"target":34962
		},
		{
			"buffer":0,
			"byteLength":720,
			"byteOffset":6976,
			"target":34963
		},
		{
			"buffer":0,
			"byteLength":6048,
			"byteOffset":7696,
			"target":34962
		},
		{
			"buffer":0,
			"byteLength":6048,
			"byteOffset":13744,
			"target":34962
		},
		{
			"buffer":0,
			"byteLength":4032,
			"byteOffset":19792,
			"target":34962
		},
		{
			"buffer":0,
			"byteLength":1872,
			"byteOffset":23824,
			"target":34963
		}
	],
	"buffers":[
		{
			"byteLength":25696,
			"uri":"Dresser_02.bin"
		}
	]
}
