{
	"asset":{
		"generator":"Khronos glTF Blender I/O v5.1.19",
		"version":"2.0"
	},
	"scene":0,
	"scenes":[
		{
			"name":"Scene",
			"nodes":[
				0
			]
		}
	],
	"nodes":[
		{
			"mesh":0,
			"name":"House2"
		}
	],
	"materials":[
		{
			"doubleSided":true,
			"name":"\u30de\u30c6\u30ea\u30a2\u30eb",
			"pbrMetallicRoughness":{
				"baseColorFactor":[
					0.800000011920929,
					0.800000011920929,
					0.800000011920929,
					1
				],
				"metallicFactor":0,
				"roughnessFactor":0.5
			}
		},
		{
			"doubleSided":true,
			"name":"\u30de\u30c6\u30ea\u30a2\u30eb.001",
			"pbrMetallicRoughness":{
				"baseColorFactor":[
					0.8000315427780151,
					0.04961220920085907,
					0.014784751459956169,
					1
				],
				"metallicFactor":0,
				"roughnessFactor":0.5
			}
		},
		{
			"doubleSided":true,
			"name":"\u30de\u30c6\u30ea\u30a2\u30eb.002",
			"pbrMetallicRoughness":{
				"baseColorFactor":[
					0.6038432121276855,
					0.13287252187728882,
					0.010022985748946667,
					1
				],
				"metallicFactor":0,
				"roughnessFactor":0.5
			}
		},
		{
			"doubleSided":true,
			"name":"\u30de\u30c6\u30ea\u30a2\u30eb.003",
			"pbrMetallicRoughness":{
				"baseColorFactor":[
					0,
					0,
					0,
					1
				],
				"metallicFactor":0,
				"roughnessFactor":0.5
			}
		},
		{
			"doubleSided":true,
			"name":"\u30de\u30c6\u30ea\u30a2\u30eb.004",
			"pbrMetallicRoughness":{
				"baseColorFactor":[
					0.2939407527446747,
					0.5197790265083313,
					0.8000074625015259,
					1
				],
				"metallicFactor":0,
				"roughnessFactor":0.5
			}
		},
		{
			"doubleSided":true,
			"name":"\u30de\u30c6\u30ea\u30a2\u30eb.005",
			"pbrMetallicRoughness":{
				"baseColorFactor":[
					0.8000229597091675,
					0.4269329309463501,
					0.21180379390716553,
					1
				],
				"metallicFactor":0,
				"roughnessFactor":0.5
			}
		},
		{
			"doubleSided":true,
			"name":"\u30de\u30c6\u30ea\u30a2\u30eb.006",
			"pbrMetallicRoughness":{
				"baseColorFactor":[
					0.8000229597091675,
					0.19209590554237366,
					0.012667701579630375,
					1
				],
				"metallicFactor":0,
				"roughnessFactor":0.5
			}
		}
	],
	"meshes":[
		{
			"name":"Cube.035",
			"primitives":[
				{
					"attributes":{
						"POSITION":0,
						"NORMAL":1,
						"TEXCOORD_0":2
					},
					"indices":3,
					"material":0
				},
				{
					"attributes":{
						"POSITION":4,
						"NORMAL":5,
						"TEXCOORD_0":6
					},
					"indices":7,
					"material":1
				},
				{
					"attributes":{
						"POSITION":8,
						"NORMAL":9,
						"TEXCOORD_0":10
					},
					"indices":11,
					"material":2
				},
				{
					"attributes":{
						"POSITION":12,
						"NORMAL":13,
						"TEXCOORD_0":14
					},
					"indices":15,
					"material":3
				},
				{
					"attributes":{
						"POSITION":16,
						"NORMAL":17,
						"TEXCOORD_0":18
					},
					"indices":19,
					"material":4
				},
				{
					"attributes":{
						"POSITION":20,
						"NORMAL":21,
						"TEXCOORD_0":22
					},
					"indices":23,
					"material":5
				},
				{
					"attributes":{
						"POSITION":24,
						"NORMAL":25,
						"TEXCOORD_0":26
					},
					"indices":27,
					"material":6
				}
			]
		}
	],
	"accessors":[
		{
			"bufferView":0,
			"componentType":5126,
			"count":636,
			"max":[
				0.6205567121505737,
				1.293534755706787,
				0.7101919054985046
			],
			"min":[
				-0.6343535780906677,
				0.058124713599681854,
				-0.7326246500015259
			],
			"type":"VEC3"
		},
		{
			"bufferView":1,
			"componentType":5126,
			"count":636,
			"type":"VEC3"
		},
		{
			"bufferView":2,
			"componentType":5126,
			"count":636,
			"type":"VEC2"
		},
		{
			"bufferView":3,
			"componentType":5123,
			"count":1365,
			"type":"SCALAR"
		},
		{
			"bufferView":4,
			"componentType":5126,
			"count":99,
			"max":[
				0.6205567121505737,
				1.3465057611465454,
				0.7101919054985046
			],
			"min":[
				-0.6343535780906677,
				0.0037460566964000463,
				-0.7326246500015259
			],
			"type":"VEC3"
		},
		{
			"bufferView":5,
			"componentType":5126,
			"count":99,
			"type":"VEC3"
		},
		{
			"bufferView":6,
			"componentType":5126,
			"count":99,
			"type":"VEC2"
		},
		{
			"bufferView":7,
			"componentType":5123,
			"count":174,
			"type":"SCALAR"
		},
		{
			"bufferView":8,
			"componentType":5126,
			"count":1433,
			"max":[
				0.5955660343170166,
				1.2786835432052612,
				0.684826672077179
			],
			"min":[
				-0.6079913377761841,
				0.19697117805480957,
				-0.7053610682487488
			],
			"type":"VEC3"
		},
		{
			"bufferView":9,
			"componentType":5126,
			"count":1433,
			"type":"VEC3"
		},
		{
			"bufferView":10,
			"componentType":5126,
			"count":1433,
			"type":"VEC2"
		},
		{
			"bufferView":11,
			"componentType":5123,
			"count":3105,
			"type":"SCALAR"
		},
		{
			"bufferView":12,
			"componentType":5126,
			"count":20,
			"max":[
				0.29905253648757935,
				1.2391575574874878,
				0.38618704676628113
			],
			"min":[
				0.24937720596790314,
				1.1990916728973389,
				0.31015706062316895
			],
			"type":"VEC3"
		},
		{
			"bufferView":13,
			"componentType":5126,
			"count":20,
			"type":"VEC3"
		},
		{
			"bufferView":14,
			"componentType":5126,
			"count":20,
			"type":"VEC2"
		},
		{
			"bufferView":15,
			"componentType":5123,
			"count":30,
			"type":"SCALAR"
		},
		{
			"bufferView":16,
			"componentType":5126,
			"count":116,
			"max":[
				0.5584231019020081,
				0.7171847224235535,
				0.6485798954963684
			],
			"min":[
				-0.5708485245704651,
				0.5454866290092468,
				-0.6670565009117126
			],
			"type":"VEC3"
		},
		{
			"bufferView":17,
			"componentType":5126,
			"count":116,
			"type":"VEC3"
		},
		{
			"bufferView":18,
			"componentType":5126,
			"count":116,
			"type":"VEC2"
		},
		{
			"bufferView":19,
			"componentType":5123,
			"count":174,
			"type":"SCALAR"
		},
		{
			"bufferView":20,
			"componentType":5126,
			"count":546,
			"max":[
				0.5700148940086365,
				0.7260913252830505,
				0.6598488092422485
			],
			"min":[
				-0.5824402570724487,
				0.058555781841278076,
				-0.40421241521835327
			],
			"type":"VEC3"
		},
		{
			"bufferView":21,
			"componentType":5126,
			"count":546,
			"type":"VEC3"
		},
		{
			"bufferView":22,
			"componentType":5126,
			"count":546,
			"type":"VEC2"
		},
		{
			"bufferView":23,
			"componentType":5123,
			"count":1104,
			"type":"SCALAR"
		},
		{
			"bufferView":24,
			"componentType":5126,
			"count":33,
			"max":[
				0.5549468994140625,
				1.3465057611465454,
				0.6473316550254822
			],
			"min":[
				-0.568743884563446,
				0.058124713599681854,
				-0.6648632287979126
			],
			"type":"VEC3"
		},
		{
			"bufferView":25,
			"componentType":5126,
			"count":33,
			"type":"VEC3"
		},
		{
			"bufferView":26,
			"componentType":5126,
			"count":33,
			"type":"VEC2"
		},
		{
			"bufferView":27,
			"componentType":5123,
			"count":54,
			"type":"SCALAR"
		}
	],
	"bufferViews":[
		{
			"buffer":0,
			"byteLength":7632,
			"byteOffset":0,
			"target":34962
		},
		{
			"buffer":0,
			"byteLength":7632,
			"byteOffset":7632,
			"target":34962
		},
		{
			"buffer":0,
			"byteLength":5088,
			"byteOffset":15264,
			"target":34962
		},
		{
			"buffer":0,
			"byteLength":2730,
			"byteOffset":20352,
			"target":34963
		},
		{
			"buffer":0,
			"byteLength":1188,
			"byteOffset":23084,
			"target":34962
		},
		{
			"buffer":0,
			"byteLength":1188,
			"byteOffset":24272,
			"target":34962
		},
		{
			"buffer":0,
			"byteLength":792,
			"byteOffset":25460,
			"target":34962
		},
		{
			"buffer":0,
			"byteLength":348,
			"byteOffset":26252,
			"target":34963
		},
		{
			"buffer":0,
			"byteLength":17196,
			"byteOffset":26600,
			"target":34962
		},
		{
			"buffer":0,
			"byteLength":17196,
			"byteOffset":43796,
			"target":34962
		},
		{
			"buffer":0,
			"byteLength":11464,
			"byteOffset":60992,
			"target":34962
		},
		{
			"buffer":0,
			"byteLength":6210,
			"byteOffset":72456,
			"target":34963
		},
		{
			"buffer":0,
			"byteLength":240,
			"byteOffset":78668,
			"target":34962
		},
		{
			"buffer":0,
			"byteLength":240,
			"byteOffset":78908,
			"target":34962
		},
		{
			"buffer":0,
			"byteLength":160,
			"byteOffset":79148,
			"target":34962
		},
		{
			"buffer":0,
			"byteLength":60,
			"byteOffset":79308,
			"target":34963
		},
		{
			"buffer":0,
			"byteLength":1392,
			"byteOffset":79368,
			"target":34962
		},
		{
			"buffer":0,
			"byteLength":1392,
			"byteOffset":80760,
			"target":34962
		},
		{
			"buffer":0,
			"byteLength":928,
			"byteOffset":82152,
			"target":34962
		},
		{
			"buffer":0,
			"byteLength":348,
			"byteOffset":83080,
			"target":34963
		},
		{
			"buffer":0,
			"byteLength":6552,
			"byteOffset":83428,
			"target":34962
		},
		{
			"buffer":0,
			"byteLength":6552,
			"byteOffset":89980,
			"target":34962
		},
		{
			"buffer":0,
			"byteLength":4368,
			"byteOffset":96532,
			"target":34962
		},
		{
			"buffer":0,
			"byteLength":2208,
			"byteOffset":100900,
			"target":34963
		},
		{
			"buffer":0,
			"byteLength":396,
			"byteOffset":103108,
			"target":34962
		},
		{
			"buffer":0,
			"byteLength":396,
			"byteOffset":103504,
			"target":34962
		},
		{
			"buffer":0,
			"byteLength":264,
			"byteOffset":103900,
			"target":34962
		},
		{
			"buffer":0,
			"byteLength":108,
			"byteOffset":104164,
			"target":34963
		}
	],
	"buffers":[
		{
			"byteLength":104272,
			"uri":"House.bin"
		}
	]
}
