{
	"asset":{
		"generator":"Khronos glTF Blender I/O v5.1.19",
		"version":"2.0"
	},
	"scene":0,
	"scenes":[
		{
			"name":"Scene",
			"nodes":[
				0
			]
		}
	],
	"nodes":[
		{
			"mesh":0,
			"name":"Cube",
			"translation":[
				0,
				0.8204035758972168,
				0
			]
		}
	],
	"materials":[
		{
			"doubleSided":true,
			"name":"Material",
			"pbrMetallicRoughness":{
				"baseColorFactor":[
					0.7266781330108643,
					0.7544703483581543,
					0.8000315427780151,
					1
				],
				"metallicFactor":0,
				"roughnessFactor":0.5
			}
		},
		{
			"doubleSided":true,
			"name":"\u96ea\u9053\u5de6\u30001",
			"pbrMetallicRoughness":{
				"baseColorTexture":{
					"index":0
				},
				"metallicFactor":0,
				"roughnessFactor":0.5
			}
		},
		{
			"doubleSided":true,
			"name":"\u96ea\u9053\u5de6\u30002",
			"pbrMetallicRoughness":{
				"baseColorTexture":{
					"index":1
				},
				"metallicFactor":0,
				"roughnessFactor":0.5
			}
		},
		{
			"doubleSided":true,
			"name":"\u96ea\u9053\u53f3\u30001",
			"pbrMetallicRoughness":{
				"baseColorTexture":{
					"index":2
				},
				"metallicFactor":0,
				"roughnessFactor":0.5
			}
		},
		{
			"doubleSided":true,
			"name":"\u96ea\u9053\u53f3\u30002",
			"pbrMetallicRoughness":{
				"baseColorTexture":{
					"index":3
				},
				"metallicFactor":0,
				"roughnessFactor":0.5
			}
		},
		{
			"doubleSided":true,
			"name":"\u96ea\u90531",
			"pbrMetallicRoughness":{
				"baseColorTexture":{
					"index":4
				},
				"metallicFactor":0,
				"roughnessFactor":0.5
			}
		},
		{
			"doubleSided":true,
			"name":"\u96ea\u90532",
			"pbrMetallicRoughness":{
				"baseColorTexture":{
					"index":5
				},
				"metallicFactor":0,
				"roughnessFactor":0.5
			}
		}
	],
	"meshes":[
		{
			"name":"Cube",
			"primitives":[
				{
					"attributes":{
						"POSITION":0,
						"NORMAL":1,
						"TEXCOORD_0":2
					},
					"indices":3,
					"material":0
				},
				{
					"attributes":{
						"POSITION":4,
						"NORMAL":5,
						"TEXCOORD_0":6
					},
					"indices":7,
					"material":1
				},
				{
					"attributes":{
						"POSITION":8,
						"NORMAL":9,
						"TEXCOORD_0":10
					},
					"indices":11,
					"material":2
				},
				{
					"attributes":{
						"POSITION":12,
						"NORMAL":13,
						"TEXCOORD_0":14
					},
					"indices":15,
					"material":3
				},
				{
					"attributes":{
						"POSITION":16,
						"NORMAL":17,
						"TEXCOORD_0":18
					},
					"indices":19,
					"material":4
				},
				{
					"attributes":{
						"POSITION":20,
						"NORMAL":21,
						"TEXCOORD_0":22
					},
					"indices":23,
					"material":5
				},
				{
					"attributes":{
						"POSITION":24,
						"NORMAL":25,
						"TEXCOORD_0":26
					},
					"indices":27,
					"material":6
				}
			]
		}
	],
	"textures":[
		{
			"sampler":0,
			"source":0
		},
		{
			"sampler":0,
			"source":1
		},
		{
			"sampler":0,
			"source":2
		},
		{
			"sampler":0,
			"source":3
		},
		{
			"sampler":0,
			"source":4
		},
		{
			"sampler":0,
			"source":5
		}
	],
	"images":[
		{
			"mimeType":"image/png",
			"name":"SnowyRoadLeft1.png",
			"uri":"SnowyRoadLeft1.png.png"
		},
		{
			"mimeType":"image/png",
			"name":"SnowyRoadLeft2.png",
			"uri":"SnowyRoadLeft2.png.png"
		},
		{
			"mimeType":"image/png",
			"name":"SnowyRoadRight1",
			"uri":"SnowyRoadRight1.png"
		},
		{
			"mimeType":"image/png",
			"name":"SnowyRoadRight2",
			"uri":"SnowyRoadRight2.png"
		},
		{
			"mimeType":"image/png",
			"name":"SnowyRoad1",
			"uri":"SnowyRoad1.png"
		},
		{
			"mimeType":"image/png",
			"name":"SnowyRoad2",
			"uri":"SnowyRoad2.png"
		}
	],
	"accessors":[
		{
			"bufferView":0,
			"componentType":5126,
			"count":48,
			"max":[
				11.89340877532959,
				-0.5198548436164856,
				11.99690055847168
			],
			"min":[
				-11.89340877532959,
				-0.5212445855140686,
				-11.99690055847168
			],
			"type":"VEC3"
		},
		{
			"bufferView":1,
			"componentType":5126,
			"count":48,
			"type":"VEC3"
		},
		{
			"bufferView":2,
			"componentType":5126,
			"count":48,
			"type":"VEC2"
		},
		{
			"bufferView":3,
			"componentType":5123,
			"count":108,
			"type":"SCALAR"
		},
		{
			"bufferView":4,
			"componentType":5126,
			"count":59,
			"max":[
				-5.946704387664795,
				-0.5199745893478394,
				11.99690055847168
			],
			"min":[
				-11.89340877532959,
				-0.5211248397827148,
				-5.99845027923584
			],
			"type":"VEC3"
		},
		{
			"bufferView":5,
			"componentType":5126,
			"count":59,
			"type":"VEC3"
		},
		{
			"bufferView":6,
			"componentType":5126,
			"count":59,
			"type":"VEC2"
		},
		{
			"bufferView":7,
			"componentType":5123,
			"count":132,
			"type":"SCALAR"
		},
		{
			"bufferView":8,
			"componentType":5126,
			"count":54,
			"max":[
				-5.946704387664795,
				-0.5198548436164856,
				5.99845027923584
			],
			"min":[
				-11.89340877532959,
				-0.5212445855140686,
				-11.99690055847168
			],
			"type":"VEC3"
		},
		{
			"bufferView":9,
			"componentType":5126,
			"count":54,
			"type":"VEC3"
		},
		{
			"bufferView":10,
			"componentType":5126,
			"count":54,
			"type":"VEC2"
		},
		{
			"bufferView":11,
			"componentType":5123,
			"count":114,
			"type":"SCALAR"
		},
		{
			"bufferView":12,
			"componentType":5126,
			"count":47,
			"max":[
				11.89340877532959,
				-0.5199745893478394,
				11.99690055847168
			],
			"min":[
				5.946704387664795,
				-0.5212445855140686,
				-11.99690055847168
			],
			"type":"VEC3"
		},
		{
			"bufferView":13,
			"componentType":5126,
			"count":47,
			"type":"VEC3"
		},
		{
			"bufferView":14,
			"componentType":5126,
			"count":47,
			"type":"VEC2"
		},
		{
			"bufferView":15,
			"componentType":5123,
			"count":108,
			"type":"SCALAR"
		},
		{
			"bufferView":16,
			"componentType":5126,
			"count":38,
			"max":[
				11.89340877532959,
				-0.5198548436164856,
				5.99845027923584
			],
			"min":[
				5.946704387664795,
				-0.5212445855140686,
				-11.99690055847168
			],
			"type":"VEC3"
		},
		{
			"bufferView":17,
			"componentType":5126,
			"count":38,
			"type":"VEC3"
		},
		{
			"bufferView":18,
			"componentType":5126,
			"count":38,
			"type":"VEC2"
		},
		{
			"bufferView":19,
			"componentType":5123,
			"count":90,
			"type":"SCALAR"
		},
		{
			"bufferView":20,
			"componentType":5126,
			"count":78,
			"max":[
				5.946704387664795,
				-0.5198548436164856,
				11.99690055847168
			],
			"min":[
				-5.946704387664795,
				-0.5212445855140686,
				-11.99690055847168
			],
			"type":"VEC3"
		},
		{
			"bufferView":21,
			"componentType":5126,
			"count":78,
			"type":"VEC3"
		},
		{
			"bufferView":22,
			"componentType":5126,
			"count":78,
			"type":"VEC2"
		},
		{
			"bufferView":23,
			"componentType":5123,
			"count":204,
			"type":"SCALAR"
		},
		{
			"bufferView":24,
			"componentType":5126,
			"count":78,
			"max":[
				5.946704387664795,
				-0.5198548436164856,
				11.99690055847168
			],
			"min":[
				-5.946704387664795,
				-0.5212445855140686,
				-11.99690055847168
			],
			"type":"VEC3"
		},
		{
			"bufferView":25,
			"componentType":5126,
			"count":78,
			"type":"VEC3"
		},
		{
			"bufferView":26,
			"componentType":5126,
			"count":78,
			"type":"VEC2"
		},
		{
			"bufferView":27,
			"componentType":5123,
			"count":204,
			"type":"SCALAR"
		}
	],
	"bufferViews":[
		{
			"buffer":0,
			"byteLength":576,
			"byteOffset":0,
			"target":34962
		},
		{
			"buffer":0,
			"byteLength":576,
			"byteOffset":576,
			"target":34962
		},
		{
			"buffer":0,
			"byteLength":384,
			"byteOffset":1152,
			"target":34962
		},
		{
			"buffer":0,
			"byteLength":216,
			"byteOffset":1536,
			"target":34963
		},
		{
			"buffer":0,
			"byteLength":708,
			"byteOffset":1752,
			"target":34962
		},
		{
			"buffer":0,
			"byteLength":708,
			"byteOffset":2460,
			"target":34962
		},
		{
			"buffer":0,
			"byteLength":472,
			"byteOffset":3168,
			"target":34962
		},
		{
			"buffer":0,
			"byteLength":264,
			"byteOffset":3640,
			"target":34963
		},
		{
			"buffer":0,
			"byteLength":648,
			"byteOffset":3904,
			"target":34962
		},
		{
			"buffer":0,
			"byteLength":648,
			"byteOffset":4552,
			"target":34962
		},
		{
			"buffer":0,
			"byteLength":432,
			"byteOffset":5200,
			"target":34962
		},
		{
			"buffer":0,
			"byteLength":228,
			"byteOffset":5632,
			"target":34963
		},
		{
			"buffer":0,
			"byteLength":564,
			"byteOffset":5860,
			"target":34962
		},
		{
			"buffer":0,
			"byteLength":564,
			"byteOffset":6424,
			"target":34962
		},
		{
			"buffer":0,
			"byteLength":376,
			"byteOffset":6988,
			"target":34962
		},
		{
			"buffer":0,
			"byteLength":216,
			"byteOffset":7364,
			"target":34963
		},
		{
			"buffer":0,
			"byteLength":456,
			"byteOffset":7580,
			"target":34962
		},
		{
			"buffer":0,
			"byteLength":456,
			"byteOffset":8036,
			"target":34962
		},
		{
			"buffer":0,
			"byteLength":304,
			"byteOffset":8492,
			"target":34962
		},
		{
			"buffer":0,
			"byteLength":180,
			"byteOffset":8796,
			"target":34963
		},
		{
			"buffer":0,
			"byteLength":936,
			"byteOffset":8976,
			"target":34962
		},
		{
			"buffer":0,
			"byteLength":936,
			"byteOffset":9912,
			"target":34962
		},
		{
			"buffer":0,
			"byteLength":624,
			"byteOffset":10848,
			"target":34962
		},
		{
			"buffer":0,
			"byteLength":408,
			"byteOffset":11472,
			"target":34963
		},
		{
			"buffer":0,
			"byteLength":936,
			"byteOffset":11880,
			"target":34962
		},
		{
			"buffer":0,
			"byteLength":936,
			"byteOffset":12816,
			"target":34962
		},
		{
			"buffer":0,
			"byteLength":624,
			"byteOffset":13752,
			"target":34962
		},
		{
			"buffer":0,
			"byteLength":408,
			"byteOffset":14376,
			"target":34963
		}
	],
	"samplers":[
		{
			"magFilter":9729,
			"minFilter":9987
		}
	],
	"buffers":[
		{
			"byteLength":14784,
			"uri":"SnowyRoad.bin"
		}
	]
}
