{
	"asset":{
		"generator":"Khronos glTF Blender I/O v5.1.19",
		"version":"2.0"
	},
	"extensionsUsed":[
		"KHR_materials_specular",
		"KHR_materials_ior"
	],
	"scene":0,
	"scenes":[
		{
			"name":"Scene",
			"nodes":[
				4
			]
		}
	],
	"nodes":[
		{
			"name":"lid",
			"rotation":[
				-0.2821185290813446,
				-5.7051551038966863e-08,
				-0.025202201679348946,
				0.9590485095977783
			],
			"translation":[
				-9.313225746154785e-10,
				0.2868591248989105,
				4.773028194904327e-09
			]
		},
		{
			"children":[
				0
			],
			"name":"box",
			"rotation":[
				0.28213080763816833,
				0.0004671842616517097,
				0.02506479248404503,
				0.9590483903884888
			],
			"scale":[
				0.9999999403953552,
				1,
				1.0000001192092896
			]
		},
		{
			"mesh":0,
			"name":"Treasure_Chest_Bottom_Model",
			"skin":0
		},
		{
			"mesh":1,
			"name":"Treasure_Chest_Top_Model",
			"skin":0
		},
		{
			"children":[
				2,
				3,
				1
			],
			"name":"\u30a2\u30fc\u30de\u30c1\u30e5\u30a2"
		}
	],
	"animations":[
		{
			"channels":[
				{
					"sampler":0,
					"target":{
						"node":1,
						"path":"translation"
					}
				},
				{
					"sampler":1,
					"target":{
						"node":1,
						"path":"rotation"
					}
				},
				{
					"sampler":2,
					"target":{
						"node":1,
						"path":"scale"
					}
				},
				{
					"sampler":3,
					"target":{
						"node":0,
						"path":"translation"
					}
				},
				{
					"sampler":4,
					"target":{
						"node":0,
						"path":"rotation"
					}
				},
				{
					"sampler":5,
					"target":{
						"node":0,
						"path":"scale"
					}
				}
			],
			"name":"Open",
			"samplers":[
				{
					"input":13,
					"interpolation":"STEP",
					"output":14
				},
				{
					"input":13,
					"interpolation":"STEP",
					"output":15
				},
				{
					"input":13,
					"interpolation":"STEP",
					"output":16
				},
				{
					"input":13,
					"interpolation":"STEP",
					"output":17
				},
				{
					"input":18,
					"interpolation":"LINEAR",
					"output":19
				},
				{
					"input":13,
					"interpolation":"LINEAR",
					"output":20
				}
			]
		}
	],
	"materials":[
		{
			"doubleSided":true,
			"extensions":{
				"KHR_materials_specular":{
					"specularFactor":0
				},
				"KHR_materials_ior":{
					"ior":1.4500000476837158
				}
			},
			"name":"Material.001",
			"pbrMetallicRoughness":{
				"baseColorTexture":{
					"index":0
				},
				"metallicFactor":0,
				"roughnessFactor":0.5
			}
		}
	],
	"meshes":[
		{
			"name":"Cube.130",
			"primitives":[
				{
					"attributes":{
						"POSITION":0,
						"NORMAL":1,
						"TEXCOORD_0":2,
						"JOINTS_0":3,
						"WEIGHTS_0":4
					},
					"indices":5,
					"material":0
				}
			]
		},
		{
			"name":"Cylinder.166",
			"primitives":[
				{
					"attributes":{
						"POSITION":7,
						"NORMAL":8,
						"TEXCOORD_0":9,
						"JOINTS_0":10,
						"WEIGHTS_0":11
					},
					"indices":12,
					"material":0
				}
			]
		}
	],
	"textures":[
		{
			"sampler":0,
			"source":0
		}
	],
	"images":[
		{
			"mimeType":"image/png",
			"name":"Treasure_Chest_Basecolor",
			"uri":"Treasure_Chest_Basecolor.png"
		}
	],
	"skins":[
		{
			"inverseBindMatrices":6,
			"joints":[
				1,
				0
			],
			"name":"\u30a2\u30fc\u30de\u30c1\u30e5\u30a2"
		}
	],
	"accessors":[
		{
			"bufferView":0,
			"componentType":5126,
			"count":1061,
			"max":[
				0.3285335898399353,
				0.2542392611503601,
				0.17683447897434235
			],
			"min":[
				-0.3285335898399353,
				-0.0004991888999938965,
				-0.17683447897434235
			],
			"type":"VEC3"
		},
		{
			"bufferView":1,
			"componentType":5126,
			"count":1061,
			"type":"VEC3"
		},
		{
			"bufferView":2,
			"componentType":5126,
			"count":1061,
			"type":"VEC2"
		},
		{
			"bufferView":3,
			"componentType":5121,
			"count":1061,
			"type":"VEC4"
		},
		{
			"bufferView":4,
			"componentType":5126,
			"count":1061,
			"type":"VEC4"
		},
		{
			"bufferView":5,
			"componentType":5123,
			"count":2478,
			"type":"SCALAR"
		},
		{
			"bufferView":6,
			"componentType":5126,
			"count":2,
			"type":"MAT4"
		},
		{
			"bufferView":7,
			"componentType":5126,
			"count":1094,
			"max":[
				0.32744044065475464,
				0.4502626359462738,
				0.19634279608726501
			],
			"min":[
				-0.3274376392364502,
				0.17202214896678925,
				-0.1792673021554947
			],
			"type":"VEC3"
		},
		{
			"bufferView":8,
			"componentType":5126,
			"count":1094,
			"type":"VEC3"
		},
		{
			"bufferView":9,
			"componentType":5126,
			"count":1094,
			"type":"VEC2"
		},
		{
			"bufferView":10,
			"componentType":5121,
			"count":1094,
			"type":"VEC4"
		},
		{
			"bufferView":11,
			"componentType":5126,
			"count":1094,
			"type":"VEC4"
		},
		{
			"bufferView":12,
			"componentType":5123,
			"count":2700,
			"type":"SCALAR"
		},
		{
			"bufferView":13,
			"componentType":5126,
			"count":2,
			"max":[
				2.5
			],
			"min":[
				0.041666666666666664
			],
			"type":"SCALAR"
		},
		{
			"bufferView":14,
			"componentType":5126,
			"count":2,
			"type":"VEC3"
		},
		{
			"bufferView":15,
			"componentType":5126,
			"count":2,
			"type":"VEC4"
		},
		{
			"bufferView":16,
			"componentType":5126,
			"count":2,
			"type":"VEC3"
		},
		{
			"bufferView":17,
			"componentType":5126,
			"count":2,
			"type":"VEC3"
		},
		{
			"bufferView":18,
			"componentType":5126,
			"count":60,
			"max":[
				2.5
			],
			"min":[
				0.041666666666666664
			],
			"type":"SCALAR"
		},
		{
			"bufferView":19,
			"componentType":5126,
			"count":60,
			"type":"VEC4"
		},
		{
			"bufferView":20,
			"componentType":5126,
			"count":2,
			"type":"VEC3"
		}
	],
	"bufferViews":[
		{
			"buffer":0,
			"byteLength":12732,
			"byteOffset":0,
			"target":34962
		},
		{
			"buffer":0,
			"byteLength":12732,
			"byteOffset":12732,
			"target":34962
		},
		{
			"buffer":0,
			"byteLength":8488,
			"byteOffset":25464,
			"target":34962
		},
		{
			"buffer":0,
			"byteLength":4244,
			"byteOffset":33952,
			"target":34962
		},
		{
			"buffer":0,
			"byteLength":16976,
			"byteOffset":38196,
			"target":34962
		},
		{
			"buffer":0,
			"byteLength":4956,
			"byteOffset":55172,
			"target":34963
		},
		{
			"buffer":0,
			"byteLength":128,
			"byteOffset":60128
		},
		{
			"buffer":0,
			"byteLength":13128,
			"byteOffset":60256,
			"target":34962
		},
		{
			"buffer":0,
			"byteLength":13128,
			"byteOffset":73384,
			"target":34962
		},
		{
			"buffer":0,
			"byteLength":8752,
			"byteOffset":86512,
			"target":34962
		},
		{
			"buffer":0,
			"byteLength":4376,
			"byteOffset":95264,
			"target":34962
		},
		{
			"buffer":0,
			"byteLength":17504,
			"byteOffset":99640,
			"target":34962
		},
		{
			"buffer":0,
			"byteLength":5400,
			"byteOffset":117144,
			"target":34963
		},
		{
			"buffer":0,
			"byteLength":8,
			"byteOffset":122544
		},
		{
			"buffer":0,
			"byteLength":24,
			"byteOffset":122552
		},
		{
			"buffer":0,
			"byteLength":32,
			"byteOffset":122576
		},
		{
			"buffer":0,
			"byteLength":24,
			"byteOffset":122608
		},
		{
			"buffer":0,
			"byteLength":24,
			"byteOffset":122632
		},
		{
			"buffer":0,
			"byteLength":240,
			"byteOffset":122656
		},
		{
			"buffer":0,
			"byteLength":960,
			"byteOffset":122896
		},
		{
			"buffer":0,
			"byteLength":24,
			"byteOffset":123856
		}
	],
	"samplers":[
		{
			"magFilter":9729,
			"minFilter":9987
		}
	],
	"buffers":[
		{
			"byteLength":123880,
			"uri":"TreasureBox.bin"
		}
	]
}
