{
	"asset":{
		"generator":"Khronos glTF Blender I/O v5.1.19",
		"version":"2.0"
	},
	"extensionsUsed":[
		"KHR_materials_specular"
	],
	"scene":0,
	"scenes":[
		{
			"name":"Scene",
			"nodes":[
				0,
				1
			]
		}
	],
	"nodes":[
		{
			"mesh":0,
			"name":"GiftLid",
			"translation":[
				0,
				1.0999999046325684,
				0
			]
		},
		{
			"mesh":1,
			"name":"GiftBox"
		}
	],
	"materials":[
		{
			"doubleSided":true,
			"extensions":{
				"KHR_materials_specular":{
					"specularFactor":0.20000000298023224
				}
			},
			"name":"WhiteBox",
			"pbrMetallicRoughness":{
				"metallicFactor":0,
				"roughnessFactor":0.5
			}
		},
		{
			"doubleSided":true,
			"extensions":{
				"KHR_materials_specular":{
					"specularColorFactor":[
						2.0,
						2.0,
						2.0
					]
				}
			},
			"name":"Ribbon",
			"pbrMetallicRoughness":{
				"baseColorFactor":[
					0.7727704644203186,
					0,
					0,
					1
				],
				"metallicFactor":0,
				"roughnessFactor":0.5
			}
		}
	],
	"meshes":[
		{
			"name":"Cube.003",
			"primitives":[
				{
					"attributes":{
						"POSITION":0,
						"NORMAL":1,
						"TEXCOORD_0":2
					},
					"indices":3,
					"material":0
				},
				{
					"attributes":{
						"POSITION":4,
						"NORMAL":5,
						"TEXCOORD_0":6
					},
					"indices":7,
					"material":1
				}
			]
		},
		{
			"name":"Cube.002",
			"primitives":[
				{
					"attributes":{
						"POSITION":8,
						"NORMAL":9,
						"TEXCOORD_0":10
					},
					"indices":11,
					"material":0
				},
				{
					"attributes":{
						"POSITION":12,
						"NORMAL":13,
						"TEXCOORD_0":14
					},
					"indices":15,
					"material":1
				}
			]
		}
	],
	"accessors":[
		{
			"bufferView":0,
			"componentType":5126,
			"count":140,
			"max":[
				0.800000011920929,
				0.4100000560283661,
				0.800000011920929
			],
			"min":[
				-0.800000011920929,
				0,
				-0.800000011920929
			],
			"type":"VEC3"
		},
		{
			"bufferView":1,
			"componentType":5126,
			"count":140,
			"type":"VEC3"
		},
		{
			"bufferView":2,
			"componentType":5126,
			"count":140,
			"type":"VEC2"
		},
		{
			"bufferView":3,
			"componentType":5123,
			"count":222,
			"type":"SCALAR"
		},
		{
			"bufferView":4,
			"componentType":5126,
			"count":200,
			"max":[
				0.9044166207313538,
				0.6897897720336914,
				0.9044166207313538
			],
			"min":[
				-0.9044166803359985,
				0,
				-0.9044166207313538
			],
			"type":"VEC3"
		},
		{
			"bufferView":5,
			"componentType":5126,
			"count":200,
			"type":"VEC3"
		},
		{
			"bufferView":6,
			"componentType":5126,
			"count":200,
			"type":"VEC2"
		},
		{
			"bufferView":7,
			"componentType":5123,
			"count":474,
			"type":"SCALAR"
		},
		{
			"bufferView":8,
			"componentType":5126,
			"count":140,
			"max":[
				0.7699999809265137,
				1.4799998998641968,
				0.7699999809265137
			],
			"min":[
				-0.7699999809265137,
				0,
				-0.7699999809265137
			],
			"type":"VEC3"
		},
		{
			"bufferView":9,
			"componentType":5126,
			"count":140,
			"type":"VEC3"
		},
		{
			"bufferView":10,
			"componentType":5126,
			"count":140,
			"type":"VEC2"
		},
		{
			"bufferView":11,
			"componentType":5123,
			"count":222,
			"type":"SCALAR"
		},
		{
			"bufferView":12,
			"componentType":5126,
			"count":60,
			"max":[
				0.7699999809265137,
				1.4799998998641968,
				0.7699999809265137
			],
			"min":[
				-0.7699999809265137,
				0,
				-0.7699999809265137
			],
			"type":"VEC3"
		},
		{
			"bufferView":13,
			"componentType":5126,
			"count":60,
			"type":"VEC3"
		},
		{
			"bufferView":14,
			"componentType":5126,
			"count":60,
			"type":"VEC2"
		},
		{
			"bufferView":15,
			"componentType":5123,
			"count":102,
			"type":"SCALAR"
		}
	],
	"bufferViews":[
		{
			"buffer":0,
			"byteLength":1680,
			"byteOffset":0,
			"target":34962
		},
		{
			"buffer":0,
			"byteLength":1680,
			"byteOffset":1680,
			"target":34962
		},
		{
			"buffer":0,
			"byteLength":1120,
			"byteOffset":3360,
			"target":34962
		},
		{
			"buffer":0,
			"byteLength":444,
			"byteOffset":4480,
			"target":34963
		},
		{
			"buffer":0,
			"byteLength":2400,
			"byteOffset":4924,
			"target":34962
		},
		{
			"buffer":0,
			"byteLength":2400,
			"byteOffset":7324,
			"target":34962
		},
		{
			"buffer":0,
			"byteLength":1600,
			"byteOffset":9724,
			"target":34962
		},
		{
			"buffer":0,
			"byteLength":948,
			"byteOffset":11324,
			"target":34963
		},
		{
			"buffer":0,
			"byteLength":1680,
			"byteOffset":12272,
			"target":34962
		},
		{
			"buffer":0,
			"byteLength":1680,
			"byteOffset":13952,
			"target":34962
		},
		{
			"buffer":0,
			"byteLength":1120,
			"byteOffset":15632,
			"target":34962
		},
		{
			"buffer":0,
			"byteLength":444,
			"byteOffset":16752,
			"target":34963
		},
		{
			"buffer":0,
			"byteLength":720,
			"byteOffset":17196,
			"target":34962
		},
		{
			"buffer":0,
			"byteLength":720,
			"byteOffset":17916,
			"target":34962
		},
		{
			"buffer":0,
			"byteLength":480,
			"byteOffset":18636,
			"target":34962
		},
		{
			"buffer":0,
			"byteLength":204,
			"byteOffset":19116,
			"target":34963
		}
	],
	"buffers":[
		{
			"byteLength":19320,
			"uri":"giftbox.bin"
		}
	]
}
